<?xml version="1.0" encoding="utf-8"?>
<svg viewBox="4.815 24.517 7.611 8.248" xmlns="http://www.w3.org/2000/svg">
  <defs>
    <style type="text/css">
	.st0{fill:#1D1B1B;}
	.st1{fill:#F23F2C;}
</style>
  </defs>
  <g transform="matrix(0.013788, -0.000074, 0.000076, 0.013657, -8.784821, 11.572906)" style="">
    <g transform="matrix(1, 0, 0, 1, 715.414246, 716.571533)">
      <path class="st1" d="M 529.9 239.6 L 265.7 368.3 L 265.7 682.6 L 338.4 648.2 L 338.4 524.5 L 529.9 431.3 L 529.9 239.6 Z M 466.8 402.8 L 338.4 465.3 L 338.4 399.1 L 339.2 398.7 L 466 337 L 466.8 336.6 L 466.8 402.8 Z" style="fill: rgba(255, 255, 255, 0); stroke-width: 5.13376px; stroke: rgb(255, 1, 14);"/>
      <path class="st1" d="M 622.8 339.8 L 623.6 340.2 L 814.3 433 L 814.3 367.2 L 552.1 239.5 L 552.1 554.8 L 814.4 682.5 L 814.4 621.3 L 623.7 528.4 L 622.9 528 L 622.9 462.8 L 814.4 556 L 814.4 495 L 622.9 401.8 L 622.9 339.8 L 622.8 339.8 Z" style="fill: rgba(255, 255, 255, 0); stroke-width: 5.13376px; stroke: rgb(255, 1, 14);"/>
      <path class="st1" d="M 541.1 575.8 L 269.8 708.6 L 541.1 840.5 L 813.8 708.6 L 541.1 575.8 Z M 505.9 754.2 C 505.9 761.6 497 766.3 489.8 762.6 L 401.8 718.1 C 397.2 715.8 397.3 709.8 401.9 707.6 L 489.7 665.4 C 496.9 661.9 505.7 666.7 505.5 674.1 L 505.5 674.4 C 505.4 677.9 503.2 681.2 499.8 682.8 L 436 713.1 L 500.5 745.8 C 503.9 747.5 505.9 750.7 505.9 754.2 Z M 576.3 653.9 L 532.6 782.1 C 530.8 787.4 524.5 790.4 518.6 788.8 C 512.7 787.2 509.4 781.6 511.2 776.2 L 554.9 648 C 556.7 642.7 563 639.7 568.9 641.3 C 574.7 643 578.1 648.6 576.3 653.9 Z M 686.7 718.1 L 598.7 762.6 C 591.5 766.2 582.6 761.6 582.6 754.2 C 582.6 750.7 584.7 747.5 588.1 745.8 L 652.6 713.1 L 588.7 682.8 C 585.2 681.1 583 677.9 583 674.4 L 583 674.1 C 582.9 666.7 591.6 662 598.8 665.4 L 686.6 707.6 C 691.2 709.8 691.3 715.8 686.7 718.1 Z" style="fill: rgba(255, 255, 255, 0); stroke-width: 5.13376px; stroke: rgb(255, 1, 14);"/>
    </g>
  </g>
</svg>