<?xml version="1.0" encoding="utf-8"?>
<svg viewBox="426.725 396 586.549 648" xmlns="http://www.w3.org/2000/svg">
  <defs>
    <clipPath clipPathUnits="userSpaceOnUse" id="clipPath28">
      <path d="M 0,1080 H 1080 V 0 H 0 Z" id="path26"/>
    </clipPath>
  </defs>
  <g id="g10" transform="matrix(1.333333, 0, 0, -1.333333, 720.982483, 396.000061)">
    <path d="m 0,0 -220.693,-106.724 0.027,-271.905 L 0.146,-486 l 219.047,108.3 0.026,271.117 z" style="fill-opacity: 1; fill-rule: nonzero; stroke: none; fill: rgb(106, 106, 106);" id="path12"/>
  </g>
  <g id="g14" transform="matrix(1.333333, 0, 0, -1.333333, 648.167664, 587.823608)">
    <path d="M 0,0 -94.604,-46.064 V 2.723 L -94.001,3.016 -0.604,48.494 0,48.787 Z M 46.451,120.193 -148.184,25.427 v -231.541 l 53.58,25.375 v 91.128 l 141.055,68.684 z" style="fill-opacity: 1; fill-rule: nonzero; stroke-width: 3.75px; fill: rgba(0, 0, 0, 0); stroke: rgb(255, 255, 255);" id="path16"/>
  </g>
  <g id="g18" transform="matrix(1.333333, 0, 0, -1.333333, 801.354553, 525.927979)">
    <path d="m 0,0 0.604,-0.293 140.463,-68.39 v 48.461 L -52.114,73.836 v -232.248 l 193.181,-94.07 v 45.077 L 0.604,-139.004 0,-138.712 v 48.005 l 141.067,-68.683 v 45.076 L 0,-45.631 Z" style="fill-opacity: 1; fill-rule: nonzero; stroke-width: 3.75px; fill: rgba(0, 0, 0, 0); stroke: rgb(255, 255, 255);" id="path20"/>
  </g>
  <g id="g22" transform="matrix(1.333333, 0, 0, -1.333333, 0, 1440)">
    <g id="g24" clip-path="url(#clipPath28)">
      <g id="g30" transform="translate(648.1013,406.8846)">
        <path d="m 0,0 -64.818,-32.814 c -5.287,-2.677 -11.824,0.755 -11.824,6.207 0,2.569 1.539,4.939 4.027,6.203 l 47.477,24.117 -47.08,22.327 c -2.566,1.217 -4.187,3.594 -4.228,6.199 l -0.004,0.217 c -0.086,5.428 6.345,8.945 11.672,6.383 L -0.093,7.732 C 3.322,6.09 3.374,1.708 0,0 m -81.384,47.281 -32.223,-94.412 c -1.334,-3.908 -5.94,-6.104 -10.289,-4.906 -4.349,1.198 -6.794,5.337 -5.46,9.245 l 32.224,94.412 c 1.333,3.908 5.94,6.104 10.289,4.906 4.349,-1.198 6.793,-5.337 5.459,-9.245 m -51.787,-73.888 c 0,-5.452 -6.537,-8.884 -11.824,-6.207 L -209.813,0 c -3.375,1.708 -3.322,6.09 0.093,7.732 l 64.684,31.107 c 5.327,2.562 11.759,-0.955 11.672,-6.383 l -0.003,-0.217 c -0.041,-2.605 -1.663,-4.982 -4.228,-6.199 l -47.08,-22.327 47.476,-24.117 c 2.489,-1.264 4.028,-3.634 4.028,-6.203 M -107.289,104.819 -307.098,7.018 -107.29,-90.139 93.571,7.007 Z" style="fill-opacity: 1; fill-rule: nonzero; stroke-width: 3.75px; fill: rgba(0, 0, 0, 0); stroke: rgb(255, 255, 255);" id="path32"/>
      </g>
    </g>
  </g>
</svg>